<svg height="512pt" viewBox="-48 0 512 512.001" width="512pt" xmlns="http://www.w3.org/2000/svg"><path d="m44.269531 504.5c0-90.152344 73.082031-163.238281 163.234375-163.238281 90.15625 0 163.238282 73.085937 163.238282 163.238281zm0 0" fill="#c9caca"/><path d="m222.503906 341.957031c-4.941406-.449219-9.941406-.695312-15-.695312-90.152344 0-163.238281 73.085937-163.238281 163.238281h30c.003906-85.09375 65.117187-154.96875 148.238281-162.542969zm0 0" fill="#b5baba"/><path d="m394.3125 286.710938h-58.46875v-93.398438h58.46875c7.289062 0 13.195312 5.910156 13.195312 13.199219v67c0 7.289062-5.90625 13.199219-13.195312 13.199219zm0 0" fill="#f9993e"/><path d="m335.84375 193.3125h45.660156v93.398438h-45.660156zm0 0" fill="#e08a38"/><path d="m20.699219 286.710938h58.46875v-93.398438h-58.46875c-7.289063 0-13.199219 5.910156-13.199219 13.199219v67c0 7.289062 5.910156 13.199219 13.199219 13.199219zm0 0" fill="#f9993e"/><path d="m27.5 273.511719v-67c0-7.289063 5.910156-13.199219 13.199219-13.199219h-20c-7.289063 0-13.199219 5.910156-13.199219 13.199219v67c0 7.289062 5.910156 13.199219 13.199219 13.199219h20c-7.289063 0-13.199219-5.910157-13.199219-13.199219zm0 0" fill="#e08a38"/><path d="m320.175781 372.242188h-225.34375c-5.570312 0-10.089843-4.519532-10.089843-10.09375v-31.140626c0-5.570312 4.519531-10.089843 10.089843-10.089843h225.34375c5.574219 0 10.089844 4.519531 10.089844 10.089843v31.140626c0 5.574218-4.515625 10.09375-10.089844 10.09375zm0 0" fill="#f9993e"/><path d="m114.742188 362.148438v-31.140626c0-5.574218 4.519531-10.089843 10.089843-10.089843h-30c-5.570312 0-10.089843 4.515625-10.089843 10.089843v31.140626c0 5.574218 4.519531 10.089843 10.089843 10.089843h30c-5.570312.003907-10.089843-4.515625-10.089843-10.089843zm0 0" fill="#e08a38"/><path d="m345.003906 340.714844h-275c-9.113281 0-16.5-7.386719-16.5-16.5v-162.714844c0-85.050781 68.949219-154 154-154 85.050782 0 154 68.949219 154 154v162.714844c0 9.113281-7.386718 16.5-16.5 16.5zm0 0" fill="#dfe0e0"/><path d="m83.503906 324.214844v-162.714844c0-79.988281 60.988282-145.730469 139-153.269531-4.933594-.476563-9.9375-.730469-15-.730469-85.050781 0-154 68.949219-154 154v162.714844c0 9.113281 7.386719 16.5 16.5 16.5h30c-9.113281 0-16.5-7.386719-16.5-16.5zm0 0" fill="#c9caca"/><path d="m180.199219 182.507812c0 20.390626-16.53125 36.925782-36.925781 36.925782-20.394532 0-36.925782-16.535156-36.925782-36.925782 0-20.394531 16.53125-36.929687 36.925782-36.929687 20.394531 0 36.925781 16.535156 36.925781 36.929687zm0 0" fill="#52b4de"/><path d="m126.347656 182.507812c0-16.929687 11.390625-31.183593 26.925782-35.546874-3.183594-.894532-6.53125-1.382813-10-1.382813-20.394532 0-36.925782 16.535156-36.925782 36.929687 0 20.390626 16.53125 36.925782 36.925782 36.925782 3.46875 0 6.816406-.488282 10-1.382813-15.53125-4.359375-26.925782-18.617187-26.925782-35.542969zm0 0" fill="#4aa2c8"/><path d="m308.664062 182.507812c0 20.390626-16.535156 36.925782-36.925781 36.925782-20.394531 0-36.929687-16.535156-36.929687-36.925782 0-20.394531 16.535156-36.929687 36.929687-36.929687 20.390625 0 36.925781 16.535156 36.925781 36.929687zm0 0" fill="#52b4de"/><path d="m254.808594 182.507812c0-16.929687 11.394531-31.183593 26.929687-35.546874-3.183593-.894532-6.535156-1.382813-10-1.382813-20.394531 0-36.929687 16.535156-36.929687 36.929687 0 20.390626 16.535156 36.925782 36.929687 36.925782 3.464844 0 6.816407-.488282 10-1.382813-15.535156-4.359375-26.929687-18.617187-26.929687-35.542969zm0 0" fill="#4aa2c8"/><path d="m263.183594 306.710938h-111.355469c-4.726563 0-8.554687-3.832032-8.554687-8.554688v-40.894531c0-4.722657 3.828124-8.550781 8.554687-8.550781h111.355469c4.722656 0 8.554687 3.828124 8.554687 8.550781v40.894531c0 4.722656-3.832031 8.554688-8.554687 8.554688zm0 0" fill="#52b4de"/><path d="m163.273438 298.15625v-40.894531c0-4.722657 3.828124-8.550781 8.554687-8.550781h-20c-4.726563 0-8.554687 3.828124-8.554687 8.550781v40.894531c0 4.722656 3.828124 8.554688 8.554687 8.554688h20c-4.726563 0-8.554687-3.832032-8.554687-8.554688zm0 0" fill="#4aa2c8"/><path d="m239.835938 445.414062c0 17.855469-14.472657 32.332032-32.332032 32.332032-17.855468 0-32.332031-14.476563-32.332031-32.332032 0-17.855468 14.476563-32.332031 32.332031-32.332031 17.859375 0 32.332032 14.476563 32.332032 32.332031zm0 0" fill="#e15f76"/><path d="m195.171875 445.414062c0-14.367187 9.371094-26.535156 22.332031-30.75-3.148437-1.023437-6.507812-1.582031-10-1.582031-17.855468 0-32.332031 14.476563-32.332031 32.332031 0 17.855469 14.476563 32.332032 32.332031 32.332032 3.492188 0 6.851563-.558594 10-1.582032-12.960937-4.214843-22.332031-16.382812-22.332031-30.75zm0 0" fill="#bf5164"/><path d="m271.738281 195.683594c-4.144531 0-7.5-3.359375-7.5-7.5v-11.355469c0-4.140625 3.355469-7.5 7.5-7.5 4.140625 0 7.5 3.359375 7.5 7.5v11.355469c0 4.140625-3.359375 7.5-7.5 7.5zm0 0" fill="#dfe0e0"/><path d="m143.273438 195.683594c-4.140626 0-7.5-3.359375-7.5-7.5v-11.355469c0-4.140625 3.359374-7.5 7.5-7.5 4.140624 0 7.5 3.359375 7.5 7.5v11.355469c0 4.140625-3.359376 7.5-7.5 7.5zm0 0" fill="#dfe0e0"/><path d="m394.3125 185.8125h-3.96875v-58.769531c0-4.140625-3.359375-7.5-7.5-7.5-4.144531 0-7.5 3.359375-7.5 7.5v58.769531h-6.339844v-24.3125c0-37.472656-13.125-73.992188-36.960937-102.828125-2.640625-3.195313-7.367188-3.640625-10.558594-1.003906-3.191406 2.640625-3.644531 7.367187-1.003906 10.558593 21.617187 26.15625 33.523437 59.28125 33.523437 93.273438v162.714844c0 4.960937-4.035156 9-9 9h-275c-4.960937 0-9-4.039063-9-9v-162.714844c0-80.78125 65.71875-146.5 146.5-146.5 34.007813 0 67.144532 11.914062 93.300782 33.546875 3.191406 2.636719 7.917968 2.191406 10.558593-1 2.640625-3.195313 2.191407-7.921875-1-10.5625-28.839843-23.847656-65.371093-36.984375-102.859375-36.984375-89.050781 0-161.5 72.449219-161.5 161.5v24.3125h-6.335937v-58.769531c0-4.140625-3.359375-7.5-7.5-7.5s-7.5 3.359375-7.5 7.5v58.769531h-3.96875c-11.414063 0-20.699219 9.285156-20.699219 20.699219v67c0 11.414062 9.285156 20.699219 20.699219 20.699219h25.304687v30.003906c0 13.234375 10.765625 24 24 24h7.238282v13.933594c0 8.515624 6.078124 15.628906 14.125 17.246093-14.28125 13.28125-26.316407 28.980469-35.316407 46.222657-12.617187 24.167968-19.285156 51.445312-19.285156 78.882812 0 4.144531 3.359375 7.5 7.5 7.5h326.476563c4.140624 0 7.5-3.355469 7.5-7.5 0-27.4375-6.667969-54.714844-19.285157-78.882812-9-17.242188-21.035156-32.941407-35.316406-46.222657 8.046875-1.613281 14.125-8.730469 14.125-17.246093v-13.933594h7.238281c13.234375 0 24-10.765625 24-24v-30.003906h25.308594c11.410156 0 20.695312-9.285157 20.695312-20.699219v-67c0-11.414063-9.285156-20.699219-20.695312-20.699219zm-348.308594 93.398438h-25.304687c-3.144531 0-5.699219-2.558594-5.699219-5.699219v-67c0-3.144531 2.554688-5.699219 5.699219-5.699219h25.304687zm317.054688 217.789062h-311.109375c2.25-46.183594 25.171875-89.417969 62.371093-117.257812h85.683594v26.558593c-18.386718 3.515625-32.332031 19.714844-32.332031 39.113281 0 21.964844 17.867187 39.832032 39.832031 39.832032s39.832032-17.867188 39.832032-39.832032c0-19.398437-13.941407-35.597656-32.332032-39.113281v-26.558593h27.140625c4.140625 0 7.5-3.359376 7.5-7.5 0-4.144532-3.359375-7.5-7.5-7.5h-147.3125c-1.425781 0-2.589843-1.164063-2.589843-2.59375v-13.933594h230.523437v13.933594c0 1.429687-1.160156 2.59375-2.589844 2.59375h-50.035156c-4.140625 0-7.5 3.355468-7.5 7.5 0 4.140624 3.359375 7.5 7.5 7.5h30.550781c37.199219 27.839843 60.117188 71.074218 62.367188 117.257812zm-155.554688-76.417969c13.695313 0 24.832032 11.140625 24.832032 24.832031 0 13.691407-11.136719 24.832032-24.832032 24.832032-13.691406 0-24.832031-11.140625-24.832031-24.832032 0-13.691406 11.140625-24.832031 24.832031-24.832031zm192.503906-147.070312c0 3.140625-2.554687 5.699219-5.695312 5.699219h-25.308594v-78.398438h25.308594c3.140625 0 5.695312 2.558594 5.695312 5.699219zm0 0"/><path d="m187.699219 182.507812c0-24.5-19.929688-44.429687-44.425781-44.429687-24.496094 0-44.425782 19.929687-44.425782 44.429687 0 24.496094 19.929688 44.425782 44.425782 44.425782 24.496093 0 44.425781-19.929688 44.425781-44.425782zm-73.851563 0c0-16.226562 13.199219-29.429687 29.425782-29.429687 16.226562 0 29.425781 13.203125 29.425781 29.429687 0 16.222657-13.199219 29.425782-29.425781 29.425782-16.226563 0-29.425782-13.203125-29.425782-29.425782zm0 0"/><path d="m316.164062 182.507812c0-24.5-19.929687-44.429687-44.429687-44.429687-24.496094 0-44.425781 19.929687-44.425781 44.429687 0 24.496094 19.929687 44.425782 44.425781 44.425782 24.5 0 44.429687-19.929688 44.429687-44.425782zm-44.425781 29.425782c-16.226562 0-29.429687-13.203125-29.429687-29.425782 0-16.226562 13.203125-29.429687 29.429687-29.429687 16.222657 0 29.425781 13.203125 29.425781 29.429687 0 16.222657-13.203124 29.425782-29.425781 29.425782zm0 0"/><path d="m151.828125 314.210938h111.355469c8.851562 0 16.054687-7.203126 16.054687-16.054688v-40.894531c0-8.851563-7.203125-16.054688-16.054687-16.054688h-111.355469c-8.851563 0-16.054687 7.203125-16.054687 16.054688v40.894531c0 8.851562 7.199218 16.054688 16.054687 16.054688zm93.480469-58h17.875c.578125 0 1.054687.472656 1.054687 1.050781v40.894531c0 .582031-.476562 1.054688-1.054687 1.054688h-17.875zm-30.304688 0h15.304688v43h-15.304688zm-30.304687 0h15.304687v43h-15.304687zm-33.925781 1.050781c0-.578125.472656-1.050781 1.054687-1.050781h17.871094v43h-17.871094c-.582031 0-1.054687-.476563-1.054687-1.054688zm0 0"/></svg>