<?xml version="1.0" encoding="iso-8859-1"?>
<!-- Generator: Adobe Illustrator 19.0.0, SVG Export Plug-In . SVG Version: 6.00 Build 0)  -->
<svg version="1.1" id="Capa_1" xmlns="http://www.w3.org/2000/svg" xmlns:xlink="http://www.w3.org/1999/xlink" x="0px" y="0px"
	 viewBox="0 0 512 512" style="enable-background:new 0 0 512 512;" xml:space="preserve">
<g>
	<path style="fill:#2FC8B4;" d="M129.838,353.23c-8.62,9.99-17.98,22.81-26.1,38.45c-8.13,15.63-15.02,34.08-18.74,55.33
		c-3.02,17.31-3.93,36.47-1.68,57.49h46.52l36.456-49.999L129.838,353.23z"/>
	<path style="fill:#2FC8B4;" d="M426.898,447.01c-7.403-42.321-27.415-73.521-44.618-93.527l-0.065-0.253l-0.045,0.124
		c-0.004-0.005-0.008-0.01-0.012-0.014v0.049l-36.399,101.112l36.399,49.921v0.078h46.42
		C430.828,483.48,429.918,464.32,426.898,447.01z"/>
</g>
<g>
	<path style="fill:#00AE95;" d="M129.838,353.23c-5.826,6.752-11.989,14.801-17.88,24.136c3.986,3.329,8.097,6.522,12.329,9.567
		c7.368,5.299,15.009,10.113,22.881,14.439L129.838,353.23z"/>
	<path style="fill:#00AE95;" d="M382.158,353.23c5.826,6.752,11.989,14.801,17.88,24.136c-3.986,3.329-8.097,6.522-12.329,9.567
		c-7.368,5.299-15.009,10.113-22.881,14.439L382.158,353.23z"/>
</g>
<path style="fill:#C86D5C;" d="M382.098,353.27c0.02,0.02,0.04,0.05,0.06,0.07V504.5h-252.32V353.23L382.098,353.27z"/>
<path style="fill:#AD4F3D;" d="M129.838,353.23v37.557c37.093,25.023,80.559,38.223,126.16,38.223
	c45.6,0,89.067-13.199,126.16-38.221V353.34c-0.02-0.02-0.04-0.05-0.06-0.07L129.838,353.23z"/>
<path style="fill:#FFCE1C;" d="M158.498,353.23l1.67,15.58c0.33,3.12,2.56,19.73,13.58,40.86c14.46,27.72,37.93,51.04,67.86,67.45
	l14.42,7.9l14.42-7.9c29.93-16.41,53.4-39.73,67.86-67.45c11.02-21.13,13.24-37.74,13.58-40.86l1.66-15.54L158.498,353.23z
	 M256.028,450.81c-60.46-33.13-66.03-85.19-66.03-85.19h132.06C322.058,365.62,316.478,417.68,256.028,450.81z"/>
<path style="fill:#ECB000;" d="M288.739,426.693c16.07-2.292,31.722-6.278,46.759-11.888c0.971-1.694,1.909-3.406,2.811-5.135
	c11.02-21.13,13.24-37.74,13.58-40.86l1.66-15.54l-96.676-0.02l-98.373-0.016l1.669,15.576c0.33,3.12,2.56,19.73,13.58,40.86
	c0.907,1.739,1.85,3.46,2.827,5.163c15.033,5.603,30.682,9.582,46.747,11.869c-29.949-29.586-33.324-61.082-33.324-61.082h132.06
	C322.058,365.62,318.678,397.109,288.739,426.693z"/>
<path style="fill:#2FC8B4;" d="M332.955,358.591c0,0-6.501,60.651-76.926,99.248c-70.437-38.597-76.926-99.248-76.926-99.248
	H332.955z"/>
<path style="fill:#00AE95;" d="M298.685,425.05c30.676-33.021,34.269-66.459,34.269-66.459H179.102c0,0,3.588,33.447,34.276,66.472
	c13.902,2.613,28.153,3.946,42.62,3.946C270.489,429.01,284.762,427.672,298.685,425.05z"/>
<path style="fill:#EFEDEE;" d="M37.694,217.315v-0.11c0.08-47.558,16.466-92.666,46.598-129.426
	c5.509-6.728,11.477-13.177,17.895-19.305c11.718-11.19,24.527-20.95,38.189-29.186c-0.111-0.067-0.073-0.106,0.171-0.106
	C174.849,18.547,214.528,7.5,255.947,7.5s81.099,11.047,115.4,31.682c0.244,0,0.282,0.039,0.171,0.106
	c13.662,8.236,26.471,17.996,38.189,29.186c6.418,6.128,12.387,12.577,17.895,19.305c30.132,36.76,46.518,81.869,46.598,129.426
	v0.11L37.694,217.315L37.694,217.315z"/>
<path style="fill:#D4D2D3;" d="M427.602,87.779c-5.509-6.728-11.477-13.177-17.895-19.305c-11.718-11.19-24.527-20.95-38.189-29.187
	c0.111-0.067,0.073-0.106-0.171-0.106C337.046,18.547,297.367,7.5,255.947,7.5c-8.416,0-16.758,0.464-25,1.364
	c32.32,3.529,63.068,13.876,90.4,30.318c0.244,0,0.282,0.039,0.171,0.106c13.662,8.236,26.471,17.996,38.189,29.187
	c6.418,6.128,12.387,12.577,17.895,19.305c30.132,36.76,46.518,81.869,46.598,129.426v0.11h50v-0.11
	C474.12,169.648,457.735,124.539,427.602,87.779z"/>
<path style="fill:#E3B098;" d="M72.452,186.177c21.304,2.245,37.908,20.264,37.908,42.163c0,23.418-18.984,42.402-42.402,42.402
	s-42.402-18.984-42.402-42.402c0-21.9,16.603-39.918,37.908-42.163H72.452z"/>
<path style="fill:#FBC4AC;" d="M255.127,85c-73.282-24.908-119.266,1.303-147.544,36.774
	c-55.947,70.179-46.566,172.662,21.643,230.995c33.646,28.775,78.049,46.267,126.721,46.267c47.234,0,90.446-16.474,123.71-43.746
	c71.676-58.767,81.288-165.787,21.308-236.452C372.146,84.886,326.372,60.784,255.127,85z"/>
<path style="fill:#E3B098;" d="M448.535,186.177h-8.99c-1.432,0.151-2.73,0.379-3.925,0.668
	c-5.915-24.334-17.399-47.676-34.655-68.006c-23.15-27.274-57.245-48.185-106.689-42.807c33.694,3.975,58.551,21.437,76.689,42.807
	c59.979,70.665,50.368,177.686-21.308,236.452c-29.708,24.357-67.356,40.09-108.714,43.177c4.951,0.37,9.953,0.569,15.004,0.569
	c47.234,0,90.447-16.474,123.71-43.746c28.005-22.961,46.536-53.289,55.142-85.937c2.478,0.903,5.513,1.389,9.241,1.389
	c23.418,0,42.402-18.984,42.402-42.403C486.443,206.441,469.84,188.422,448.535,186.177z"/>
<g>
	<path style="fill:#F98084;" d="M166.318,288.32h-27.375c-4.142,0-7.5-3.358-7.5-7.5s3.358-7.5,7.5-7.5h27.375
		c4.142,0,7.5,3.358,7.5,7.5S170.46,288.32,166.318,288.32z"/>
	<path style="fill:#F98084;" d="M373.054,288.32h-27.375c-4.142,0-7.5-3.358-7.5-7.5s3.358-7.5,7.5-7.5h27.375
		c4.142,0,7.5,3.358,7.5,7.5S377.196,288.32,373.054,288.32z"/>
</g>
<path style="fill:#EFEDEE;" d="M255.998,303.217c60.45,34.519,80.544,4.688,80.544,4.688c-33.24-5.114,0-81.822-80.544-59.826
	c-80.544-21.996-47.303,54.712-80.544,59.826C175.455,307.905,195.548,337.736,255.998,303.217z"/>
<path d="M152.631,258.779c4.143,0,7.5-3.358,7.5-7.5V231.18c0-4.142-3.357-7.5-7.5-7.5c-4.142,0-7.5,3.358-7.5,7.5v20.099
	C145.131,255.421,148.489,258.779,152.631,258.779z"/>
<path d="M359.367,258.779c4.143,0,7.5-3.358,7.5-7.5V231.18c0-4.142-3.357-7.5-7.5-7.5c-4.142,0-7.5,3.358-7.5,7.5v20.099
	C351.867,255.421,355.225,258.779,359.367,258.779z"/>
<path d="M337.683,300.492c-6.938-1.067-9.232-7.453-12.816-21.769c-4.447-17.767-10.538-42.1-43.666-42.1
	c-7.387,0-15.649,1.209-25.202,3.693c-9.553-2.483-17.815-3.693-25.202-3.693c-33.137,0-39.225,24.334-43.67,42.103
	c-3.581,14.313-5.875,20.698-12.812,21.766c-2.538,0.39-4.7,2.052-5.73,4.405c-1.03,2.352-0.784,5.068,0.65,7.198
	c0.42,0.624,10.58,15.281,35.563,15.281c0.001,0-0.001,0,0,0c14.967,0,32.179-5.238,51.201-15.573
	c19.024,10.336,36.234,15.573,51.202,15.573c24.987,0,35.144-14.659,35.563-15.283c1.434-2.13,1.679-4.846,0.648-7.197
	C342.383,302.544,340.221,300.882,337.683,300.492z M307.201,312.376c-13.296,0-29.271-5.272-47.483-15.672
	c-1.152-0.658-2.436-0.987-3.719-0.987c-1.283,0-2.566,0.329-3.719,0.987c-18.211,10.399-34.187,15.672-47.482,15.672
	c-6.699,0-11.725-1.368-15.354-3.024c7.129-6.575,9.794-17.228,12.235-26.985c4.769-19.061,8.727-30.743,29.119-30.743
	c6.447,0,14.262,1.242,23.226,3.689c1.293,0.354,2.658,0.354,3.952,0c8.964-2.448,16.779-3.689,23.226-3.689
	c20.385,0,24.344,11.682,29.115,30.742c2.442,9.758,5.109,20.412,12.239,26.987C318.926,311.008,313.9,312.376,307.201,312.376z"/>
<path d="M433.406,83.028c-16.042-19.571-35.423-36.388-57.026-49.563C340.276,11.445,298.196,0,255.948,0
	c-42.075,0-83.003,11.15-118.434,32.257c-0.752,0.306-11.745,7.413-16.416,10.778c-3.361,2.42-4.123,7.108-1.702,10.469
	s7.108,4.125,10.469,1.702c4.654-3.352,9.493-6.546,14.384-9.494c0.06-0.036,0.119-0.073,0.177-0.11
	C177.711,25.582,216.274,15,255.948,15c39.675,0,78.235,10.58,111.519,30.6c0.06,0.038,0.119,0.075,0.18,0.112
	c20.539,12.381,38.953,28.273,54.156,46.822c21.533,26.269,35.796,57.061,41.74,89.849c-2.788-1.176-5.71-2.108-8.764-2.774
	c-2.033-0.444-4.154-0.932-6.243-0.932h-7.231c-3.331-11.738-7.913-23.092-13.685-33.908c-7.442-13.945-16.738-26.902-27.726-38.275
	c-24.885-25.761-55.222-38.817-90.323-38.817c-18.406,0-36.966,3.518-54.383,9.397c-0.02,0.007-0.04,0.012-0.06,0.019
	c-7.676-2.514-15.489-4.61-23.411-6.194c-44.811-8.962-89.084,2.305-120.948,35.809c-13.323,14.009-23.888,30.282-31.898,47.843
	c-3.515,7.826-6.439,15.887-8.755,24.126h-6.653c-2.083,0-4.242,0.511-6.271,0.938c-0.02,0.004-0.039,0.009-0.058,0.013
	c-3.051,0.67-5.988,1.613-8.789,2.802c5.939-32.807,20.205-63.615,41.752-89.901c5.325-6.505,11.137-12.774,17.271-18.632
	c2.996-2.86,3.105-7.608,0.245-10.604c-2.861-2.996-7.608-3.105-10.604-0.245c-6.576,6.279-12.807,13.001-18.516,19.975
	c-26.312,32.101-42.526,70.497-47.004,111.205c-8.366,8.949-13.434,20.963-13.434,34.113c0,27.517,22.386,49.903,49.902,49.903
	c1.169,0,2.341-0.057,3.511-0.14c8.962,29.002,25.355,55.119,47.941,75.958c-8.589,10.695-16.09,22.151-22.323,34.158
	c-9.411,18.091-15.963,37.437-19.475,57.502c-3.342,19.155-3.93,39.2-1.749,59.577c0.407,3.81,3.624,6.701,7.457,6.701h345.26
	c3.833,0,7.05-2.891,7.458-6.702c2.181-20.377,1.593-40.422-1.75-59.58c-7.163-40.951-25.83-71.759-41.804-91.68
	c22.511-20.865,38.794-46.934,47.667-75.967c1.298,0.103,2.597,0.173,3.892,0.173c27.517,0,49.903-22.386,49.903-49.903
	c0-13.21-5.114-25.274-13.55-34.236C475.896,153.444,459.687,115.09,433.406,83.028z M33.055,228.34
	c0-15.271,10.338-29.241,25.11-33.507c0.113-0.033,0.226-0.065,0.34-0.097c2.712-0.757,5.312-1.059,8.106-1.059
	c-2.974,15.874-3.764,32.248-2.231,48.732c0.656,7.054,1.727,14.007,3.193,20.831C48.505,263.033,33.055,247.457,33.055,228.34z
	 M92.387,448.303c3.247-18.547,9.305-36.434,18.009-53.167c3.551-6.841,7.544-13.494,11.943-19.909V497H90.165
	C88.907,480.332,89.652,463.98,92.387,448.303z M137.339,368.654c0.062,0.045,0.125,0.087,0.188,0.132
	c5.472,3.921,11.141,7.57,16.981,10.917c1.921,8.297,5.594,20.017,12.592,33.435c15.143,29.029,39.661,53.428,70.906,70.559
	l14.42,7.9c2.229,1.221,4.979,1.22,7.208,0l14.422-7.902c12.022-6.591,23.203-14.378,33.233-23.146
	c3.119-2.726,3.437-7.464,0.711-10.583c-2.726-3.118-7.464-3.437-10.583-0.711c-9.214,8.055-19.5,15.216-30.571,21.286
	l-10.816,5.926l-10.814-5.925c-28.636-15.701-51.048-37.95-64.815-64.342c-3.246-6.224-5.689-12.013-7.529-17.17
	c4.124,1.832,8.318,3.512,12.56,5.066c0.041,0.015,0.082,0.03,0.122,0.045c2.235,0.817,4.478,1.609,6.741,2.346
	c0.2,0.069,0.409,0.818,0.509,1.017c5.482,10.924,12.564,20.944,20.837,29.93c8.101,8.798,17.369,16.535,27.369,23.088
	c3.713,2.433,7.523,4.731,11.416,6.864c2.246,1.231,4.963,1.231,7.209,0c4.626-2.536,9.131-5.289,13.492-8.258
	c11.767-8.009,22.483-17.658,31.397-28.77c5.876-7.315,10.99-15.256,15.138-23.674c0.042-0.084,0.086-0.17,0.127-0.253
	c6.597-2.157,13.087-4.658,19.426-7.484c-1.843,5.182-4.294,11-7.556,17.253c-4.169,7.993-9.218,15.729-15.007,22.993
	c-2.582,3.239-2.048,7.958,1.191,10.539c3.24,2.582,7.958,2.048,10.54-1.191c6.386-8.014,11.963-16.561,16.575-25.404
	c7.02-13.458,10.695-25.222,12.614-33.548c0.447-0.256,0.892-0.516,1.336-0.776c5.406-3.159,10.676-6.558,15.75-10.227V497H137.339
	V368.654z M299.223,402.204c-6.146,9.322-13.681,17.72-22.126,25.014c-5.424,4.684-11.429,9.057-17.6,12.884
	c-1.135,0.704-2.286,1.404-3.468,2.093c-1.477-0.862-2.936-1.754-4.382-2.666c-15.266-9.624-28.801-22.18-38.779-37.27
	c-0.063-0.095-0.127-0.19-0.189-0.284c10.034,2.149,20.171,3.518,30.412,4.157c11.033,0.688,22.105,0.481,33.107-0.594
	c7.813-0.763,15.56-1.954,23.203-3.599C299.342,402.028,299.281,402.116,299.223,402.204z M421.733,497h-32.074V375.404
	c12.288,18,24.522,42.427,29.852,72.895C422.246,463.979,422.991,480.331,421.733,497z M377.24,347.526
	c-0.014,0.012-0.029,0.022-0.043,0.034l-0.146,0.124c-26.146,22.29-58.832,36.649-92.747,41.739
	c-51.675,7.755-105.758-6.294-146.453-39.241c-25.935-20.997-44.898-49.688-53.627-81.935c-0.028-0.135-0.05-0.27-0.086-0.403
	c-15.977-59.051,3.968-130.277,55.306-166.216c0.034-0.024,0.068-0.048,0.102-0.072c33.214-23.25,76.196-22.026,113.168-9.456
	c1.557,0.529,3.27,0.529,4.827,0c43.046-14.632,94.268-11.202,128.283,21.546c40.539,39.029,56.008,100.067,41.633,154.125
	c-0.061,0.231-0.109,0.464-0.148,0.698C419.038,299.226,401.804,326.599,377.24,347.526z M444.041,263.243c-0.019,0-0.038,0-0.057,0
	c1.457-6.868,2.52-13.869,3.163-20.982c1.49-16.492,0.677-32.806-2.307-48.584c8.672,0,16.91,3.361,23.219,9.355
	c0.113,0.107,0.239,0.191,0.357,0.29c6.523,6.359,10.526,15.24,10.526,25.017C478.943,247.586,463.286,263.243,444.041,263.243z"/>
<g>
</g>
<g>
</g>
<g>
</g>
<g>
</g>
<g>
</g>
<g>
</g>
<g>
</g>
<g>
</g>
<g>
</g>
<g>
</g>
<g>
</g>
<g>
</g>
<g>
</g>
<g>
</g>
<g>
</g>
</svg>
